<?xml version="1.0" encoding="UTF-8"?>
<svg version="1.1" xmlns="http://www.w3.org/2000/svg" width="40" height="40">
<path d="M0 0 C13.2 0 26.4 0 40 0 C40 13.2 40 26.4 40 40 C26.8 40 13.6 40 0 40 C0 26.8 0 13.6 0 0 Z " fill="#FDFDFD" transform="translate(0,0)"/>
<path d="M0 0 C0.99 0 1.98 0 3 0 C2.94457031 0.70125 2.88914062 1.4025 2.83203125 2.125 C2.80987483 5.38642486 2.99895243 7.88198298 4 11 C6.69830921 13.58099141 9.43300177 15.4221361 12.62890625 17.34375 C13.41136719 17.8903125 14.19382812 18.436875 15 19 C15 19.99 15 20.98 15 22 C12.69 21.34 10.38 20.68 8 20 C8 20.66 8 21.32 8 22 C7.34 22 6.68 22 6 22 C6 20.68 6 19.36 6 18 C5.01 18 4.02 18 3 18 C3.11429397 19.77155654 3.24183037 21.54226229 3.375 23.3125 C3.44460937 24.29863281 3.51421875 25.28476562 3.5859375 26.30078125 C3.83865472 29.21528433 3.83865472 29.21528433 6 32 C3.03 32.495 3.03 32.495 0 33 C0 32.34 0 31.68 0 31 C-1.32 31.33 -2.64 31.66 -4 32 C-3.34 31.01 -2.68 30.02 -2 29 C-1.54227937 26.26127045 -1.54227937 26.26127045 -1.375 23.3125 C-1.30023438 22.31863281 -1.22546875 21.32476563 -1.1484375 20.30078125 C-1.09945313 19.54152344 -1.05046875 18.78226563 -1 18 C-1.99 18 -2.98 18 -4 18 C-4 19.32 -4 20.64 -4 22 C-4.66 22 -5.32 22 -6 22 C-6 21.34 -6 20.68 -6 20 C-8.31 20.66 -10.62 21.32 -13 22 C-12.8125 20.1953125 -12.8125 20.1953125 -12 18 C-9.75 16.4296875 -9.75 16.4296875 -7 14.875 C-3.10746137 12.37949007 -3.10746137 12.37949007 -1.15234375 8.359375 C-0.95779948 5.88335701 -0.95723686 3.48026238 -1 1 C-0.67 0.67 -0.34 0.34 0 0 Z " fill="#8F8F8F" transform="translate(19,4)"/>
<path d="M0 0 C0.66 0.33 1.32 0.66 2 1 C2.33 11.23 2.66 21.46 3 32 C2.34 32 1.68 32 1 32 C1 31.34 1 30.68 1 30 C-0.32 30.33 -1.64 30.66 -3 31 C-2.34 30.01 -1.68 29.02 -1 28 C-0.54227937 25.26127045 -0.54227937 25.26127045 -0.375 22.3125 C-0.30023438 21.31863281 -0.22546875 20.32476563 -0.1484375 19.30078125 C-0.09945313 18.54152344 -0.05046875 17.78226563 0 17 C-0.99 17 -1.98 17 -3 17 C-3 18.32 -3 19.64 -3 21 C-3.66 21 -4.32 21 -5 21 C-5 20.34 -5 19.68 -5 19 C-7.31 19.66 -9.62 20.32 -12 21 C-11.8125 19.1953125 -11.8125 19.1953125 -11 17 C-8.75 15.4296875 -8.75 15.4296875 -6 13.875 C-2.09756672 11.36163695 -2.09756672 11.36163695 -0.1171875 7.32421875 C0.10064198 4.84026005 0.17007206 2.48605328 0 0 Z " fill="#CCCBCB" transform="translate(18,5)"/>
<path d="M0 0 C4.10958767 1.45044271 7.43258745 3.51110752 11 6 C10.01 6.495 10.01 6.495 9 7 C6.375 6.0625 6.375 6.0625 4 5 C4 5.66 4 6.32 4 7 C3.34 7 2.68 7 2 7 C2 5.68 2 4.36 2 3 C1.34 3 0.68 3 0 3 C0 2.01 0 1.02 0 0 Z " fill="#806869" transform="translate(23,19)"/>
<path d="M0 0 C0 0.99 0 1.98 0 3 C-0.66 3 -1.32 3 -2 3 C-2 4.32 -2 5.64 -2 7 C-2.66 7 -3.32 7 -4 7 C-4 6.34 -4 5.68 -4 5 C-6.31 5.66 -8.62 6.32 -11 7 C-8.21677024 3.90752249 -4.31039412 0 0 0 Z " fill="#B08D8F" transform="translate(17,19)"/>
<path d="M0 0 C3.5786304 1.65167557 6.74820188 3.78286492 10 6 C9.67 6.66 9.34 7.32 9 8 C7.49460339 7.05016642 5.99579653 6.08988109 4.5 5.125 C3.6646875 4.59132813 2.829375 4.05765625 1.96875 3.5078125 C1.3190625 3.01023437 0.669375 2.51265625 0 2 C0 1.34 0 0.68 0 0 Z " fill="#979696" transform="translate(24,17)"/>
</svg>
